<mxfile host="app.diagrams.net" agent="Mozilla/5.0 (Macintosh; Intel Mac OS X 10_15_7) AppleWebKit/537.36 (KHTML, like Gecko) Chrome/133.0.0.0 Safari/537.36" version="26.0.16">
  <diagram name="Page-1" id="u2jXh7bZRFM-3dut7Qrz">
    <mxGraphModel dx="837" dy="384" grid="1" gridSize="10" guides="1" tooltips="1" connect="1" arrows="1" fold="1" page="1" pageScale="1" pageWidth="827" pageHeight="1169" math="0" shadow="0">
      <root>
        <mxCell id="0" />
        <mxCell id="1" parent="0" />
        <mxCell id="ltNqIaWVD_5pz1ovLN_R-1" value="" style="rounded=0;whiteSpace=wrap;html=1;" parent="1" vertex="1">
          <mxGeometry x="314" y="194" width="200" height="150" as="geometry" />
        </mxCell>
        <mxCell id="ltNqIaWVD_5pz1ovLN_R-16" style="edgeStyle=orthogonalEdgeStyle;rounded=0;orthogonalLoop=1;jettySize=auto;html=1;exitX=0;exitY=0.75;exitDx=0;exitDy=0;entryX=1;entryY=0.75;entryDx=0;entryDy=0;endArrow=async;endFill=1;startArrow=none;startFill=0;" parent="1" source="ltNqIaWVD_5pz1ovLN_R-2" target="ltNqIaWVD_5pz1ovLN_R-3" edge="1">
          <mxGeometry relative="1" as="geometry" />
        </mxCell>
        <mxCell id="ltNqIaWVD_5pz1ovLN_R-2" value="eth0" style="rounded=0;whiteSpace=wrap;html=1;" parent="1" vertex="1">
          <mxGeometry x="500" y="300" width="40" height="30" as="geometry" />
        </mxCell>
        <mxCell id="ltNqIaWVD_5pz1ovLN_R-15" style="edgeStyle=orthogonalEdgeStyle;rounded=0;orthogonalLoop=1;jettySize=auto;html=1;startArrow=none;startFill=0;endArrow=async;endFill=1;" parent="1" source="ltNqIaWVD_5pz1ovLN_R-3" target="ltNqIaWVD_5pz1ovLN_R-2" edge="1">
          <mxGeometry relative="1" as="geometry" />
        </mxCell>
        <mxCell id="ltNqIaWVD_5pz1ovLN_R-3" value="wlan0" style="rounded=0;whiteSpace=wrap;html=1;" parent="1" vertex="1">
          <mxGeometry x="280" y="300" width="40" height="30" as="geometry" />
        </mxCell>
        <mxCell id="ltNqIaWVD_5pz1ovLN_R-11" style="edgeStyle=orthogonalEdgeStyle;rounded=0;orthogonalLoop=1;jettySize=auto;html=1;entryX=0.5;entryY=0;entryDx=0;entryDy=0;" parent="1" source="ltNqIaWVD_5pz1ovLN_R-5" target="ltNqIaWVD_5pz1ovLN_R-3" edge="1">
          <mxGeometry relative="1" as="geometry" />
        </mxCell>
        <mxCell id="ltNqIaWVD_5pz1ovLN_R-5" value="" style="verticalLabelPosition=bottom;sketch=0;aspect=fixed;html=1;verticalAlign=top;strokeColor=none;align=center;outlineConnect=0;shape=mxgraph.citrix.cell_phone;" parent="1" vertex="1">
          <mxGeometry x="190" y="160" width="25" height="60" as="geometry" />
        </mxCell>
        <mxCell id="ltNqIaWVD_5pz1ovLN_R-9" style="edgeStyle=orthogonalEdgeStyle;rounded=0;orthogonalLoop=1;jettySize=auto;html=1;entryX=0;entryY=0.5;entryDx=0;entryDy=0;" parent="1" source="ltNqIaWVD_5pz1ovLN_R-6" target="ltNqIaWVD_5pz1ovLN_R-3" edge="1">
          <mxGeometry relative="1" as="geometry" />
        </mxCell>
        <mxCell id="ltNqIaWVD_5pz1ovLN_R-6" value="" style="sketch=0;pointerEvents=1;shadow=0;dashed=0;html=1;strokeColor=none;fillColor=#505050;labelPosition=center;verticalLabelPosition=bottom;verticalAlign=top;outlineConnect=0;align=center;shape=mxgraph.office.devices.printer;" parent="1" vertex="1">
          <mxGeometry x="89" y="266.5" width="56" height="47" as="geometry" />
        </mxCell>
        <mxCell id="ltNqIaWVD_5pz1ovLN_R-12" style="edgeStyle=orthogonalEdgeStyle;rounded=0;orthogonalLoop=1;jettySize=auto;html=1;entryX=0.5;entryY=1;entryDx=0;entryDy=0;" parent="1" source="ltNqIaWVD_5pz1ovLN_R-7" target="ltNqIaWVD_5pz1ovLN_R-3" edge="1">
          <mxGeometry relative="1" as="geometry" />
        </mxCell>
        <mxCell id="ltNqIaWVD_5pz1ovLN_R-7" value="" style="outlineConnect=0;dashed=0;verticalLabelPosition=bottom;verticalAlign=top;align=center;html=1;shape=mxgraph.aws3.fire_tv;fillColor=#5294CF;gradientColor=none;" parent="1" vertex="1">
          <mxGeometry x="140" y="410" width="75" height="55.5" as="geometry" />
        </mxCell>
        <mxCell id="ltNqIaWVD_5pz1ovLN_R-17" value="Raspberry Pi&amp;nbsp;&lt;span style=&quot;background-color: transparent; color: light-dark(rgb(0, 0, 0), rgb(255, 255, 255));&quot;&gt;Access Point/Server&lt;/span&gt;" style="text;html=1;align=center;verticalAlign=middle;resizable=0;points=[];autosize=1;strokeColor=none;fillColor=none;" parent="1" vertex="1">
          <mxGeometry x="314" y="200" width="200" height="30" as="geometry" />
        </mxCell>
        <mxCell id="bsQ68h1aLlk8mcWleQC8-2" style="edgeStyle=orthogonalEdgeStyle;rounded=0;orthogonalLoop=1;jettySize=auto;html=1;entryX=0.5;entryY=1;entryDx=0;entryDy=0;" edge="1" parent="1" source="ltNqIaWVD_5pz1ovLN_R-18" target="ltNqIaWVD_5pz1ovLN_R-33">
          <mxGeometry relative="1" as="geometry" />
        </mxCell>
        <mxCell id="ltNqIaWVD_5pz1ovLN_R-18" value="Send/Receive Packets" style="text;html=1;align=center;verticalAlign=middle;resizable=0;points=[];autosize=1;strokeColor=none;fillColor=none;" parent="1" vertex="1">
          <mxGeometry x="344" y="283.5" width="140" height="30" as="geometry" />
        </mxCell>
        <mxCell id="ltNqIaWVD_5pz1ovLN_R-27" style="edgeStyle=orthogonalEdgeStyle;rounded=0;orthogonalLoop=1;jettySize=auto;html=1;exitX=0.25;exitY=0;exitDx=0;exitDy=0;endArrow=async;endFill=1;" parent="1" source="ltNqIaWVD_5pz1ovLN_R-19" edge="1">
          <mxGeometry relative="1" as="geometry">
            <mxPoint x="655" y="200" as="targetPoint" />
          </mxGeometry>
        </mxCell>
        <mxCell id="ltNqIaWVD_5pz1ovLN_R-19" value="" style="image;html=1;image=img/lib/clip_art/networking/Wireless_Router_N_128x128.png" parent="1" vertex="1">
          <mxGeometry x="640" y="269" width="60" height="75" as="geometry" />
        </mxCell>
        <mxCell id="ltNqIaWVD_5pz1ovLN_R-20" style="edgeStyle=orthogonalEdgeStyle;rounded=0;orthogonalLoop=1;jettySize=auto;html=1;entryX=0;entryY=0.613;entryDx=0;entryDy=0;entryPerimeter=0;" parent="1" source="ltNqIaWVD_5pz1ovLN_R-2" target="ltNqIaWVD_5pz1ovLN_R-19" edge="1">
          <mxGeometry relative="1" as="geometry" />
        </mxCell>
        <mxCell id="ltNqIaWVD_5pz1ovLN_R-30" style="edgeStyle=orthogonalEdgeStyle;rounded=0;orthogonalLoop=1;jettySize=auto;html=1;exitX=0.5;exitY=1;exitDx=0;exitDy=0;endArrow=async;endFill=1;" parent="1" edge="1">
          <mxGeometry relative="1" as="geometry">
            <mxPoint x="658.75" y="269" as="targetPoint" />
            <mxPoint x="658.75" y="197" as="sourcePoint" />
          </mxGeometry>
        </mxCell>
        <mxCell id="ltNqIaWVD_5pz1ovLN_R-24" value="" style="shape=image;html=1;verticalAlign=top;verticalLabelPosition=bottom;labelBackgroundColor=#ffffff;imageAspect=0;aspect=fixed;image=https://cdn4.iconfinder.com/data/icons/ionicons/512/icon-ios7-world-outline-128.png" parent="1" vertex="1">
          <mxGeometry x="630" y="130" width="58" height="58" as="geometry" />
        </mxCell>
        <mxCell id="ltNqIaWVD_5pz1ovLN_R-31" value="Send/Receive&amp;nbsp;&lt;div&gt;Packets&lt;/div&gt;" style="text;html=1;align=center;verticalAlign=middle;resizable=0;points=[];autosize=1;strokeColor=none;fillColor=none;" parent="1" vertex="1">
          <mxGeometry x="660" y="220" width="100" height="40" as="geometry" />
        </mxCell>
        <mxCell id="ltNqIaWVD_5pz1ovLN_R-32" value="Router" style="text;html=1;align=center;verticalAlign=middle;resizable=0;points=[];autosize=1;strokeColor=none;fillColor=none;" parent="1" vertex="1">
          <mxGeometry x="640" y="344" width="60" height="30" as="geometry" />
        </mxCell>
        <mxCell id="ltNqIaWVD_5pz1ovLN_R-33" value="IDS" style="whiteSpace=wrap;html=1;" parent="1" vertex="1">
          <mxGeometry x="388.5" y="239" width="51" height="30" as="geometry" />
        </mxCell>
        <mxCell id="ltNqIaWVD_5pz1ovLN_R-39" value="&lt;font style=&quot;font-size: 10px;&quot;&gt;Sniff&lt;/font&gt;" style="text;html=1;align=center;verticalAlign=middle;resizable=0;points=[];autosize=1;strokeColor=none;fillColor=none;" parent="1" vertex="1">
          <mxGeometry x="414" y="266.5" width="40" height="30" as="geometry" />
        </mxCell>
      </root>
    </mxGraphModel>
  </diagram>
</mxfile>
